<svg width="52" height="52" viewBox="0 0 52 52" fill="none" xmlns="http://www.w3.org/2000/svg">
<g clip-path="url(#clip0_89_4320)">
<path d="M26 9.75C26.431 9.75 26.8443 9.92121 27.149 10.226C27.4538 10.5307 27.625 10.944 27.625 11.375V17.875C27.625 18.306 27.4538 18.7193 27.149 19.024C26.8443 19.3288 26.431 19.5 26 19.5C25.569 19.5 25.1557 19.3288 24.851 19.024C24.5462 18.7193 24.375 18.306 24.375 17.875V11.375C24.375 10.944 24.5462 10.5307 24.851 10.226C25.1557 9.92121 25.569 9.75 26 9.75ZM39 35.75C39 39.1978 37.6304 42.5044 35.1924 44.9424C32.7544 47.3804 29.4478 48.75 26 48.75C22.5522 48.75 19.2456 47.3804 16.8076 44.9424C14.3696 42.5044 13 39.1978 13 35.75V16.25C13 12.8022 14.3696 9.49558 16.8076 7.05761C19.2456 4.61964 22.5522 3.25 26 3.25C29.4478 3.25 32.7544 4.61964 35.1924 7.05761C37.6304 9.49558 39 12.8022 39 16.25V35.75ZM26 0C21.6902 0 17.557 1.71205 14.5095 4.75951C11.462 7.80698 9.75 11.9402 9.75 16.25V35.75C9.75 40.0598 11.462 44.193 14.5095 47.2405C17.557 50.288 21.6902 52 26 52C30.3098 52 34.443 50.288 37.4905 47.2405C40.538 44.193 42.25 40.0598 42.25 35.75V16.25C42.25 11.9402 40.538 7.80698 37.4905 4.75951C34.443 1.71205 30.3098 0 26 0Z" fill="#080808"/>
<path fill-rule="evenodd" clip-rule="evenodd" d="M39 35.75C39 39.1978 37.6304 42.5044 35.1924 44.9424C32.7544 47.3804 29.4478 48.75 26 48.75C22.5522 48.75 19.2456 47.3804 16.8076 44.9424C14.3696 42.5044 13 39.1978 13 35.75V16.25C13 12.8022 14.3696 9.49558 16.8076 7.05761C19.2456 4.61964 22.5522 3.25 26 3.25C29.4478 3.25 32.7544 4.61964 35.1924 7.05761C37.6304 9.49558 39 12.8022 39 16.25V35.75ZM27.149 10.226C26.8443 9.92121 26.431 9.75 26 9.75C25.569 9.75 25.1557 9.92121 24.851 10.226C24.5462 10.5307 24.375 10.944 24.375 11.375V17.875C24.375 18.306 24.5462 18.7193 24.851 19.024C25.1557 19.3288 25.569 19.5 26 19.5C26.431 19.5 26.8443 19.3288 27.149 19.024C27.4538 18.7193 27.625 18.306 27.625 17.875V11.375C27.625 10.944 27.4538 10.5307 27.149 10.226Z" fill="#080808"/>
<path d="M26 9.75C26.431 9.75 26.8443 9.92121 27.149 10.226C27.4538 10.5307 27.625 10.944 27.625 11.375V17.875C27.625 18.306 27.4538 18.7193 27.149 19.024C26.8443 19.3288 26.431 19.5 26 19.5C25.569 19.5 25.1557 19.3288 24.851 19.024C24.5462 18.7193 24.375 18.306 24.375 17.875V11.375C24.375 10.944 24.5462 10.5307 24.851 10.226C25.1557 9.92121 25.569 9.75 26 9.75ZM39 35.75C39 39.1978 37.6304 42.5044 35.1924 44.9424C32.7544 47.3804 29.4478 48.75 26 48.75C22.5522 48.75 19.2456 47.3804 16.8076 44.9424C14.3696 42.5044 13 39.1978 13 35.75V16.25C13 12.8022 14.3696 9.49558 16.8076 7.05761C19.2456 4.61964 22.5522 3.25 26 3.25C29.4478 3.25 32.7544 4.61964 35.1924 7.05761C37.6304 9.49558 39 12.8022 39 16.25V35.75ZM26 0C21.6902 0 17.557 1.71205 14.5095 4.75951C11.462 7.80698 9.75 11.9402 9.75 16.25V35.75C9.75 40.0598 11.462 44.193 14.5095 47.2405C17.557 50.288 21.6902 52 26 52C30.3098 52 34.443 50.288 37.4905 47.2405C40.538 44.193 42.25 40.0598 42.25 35.75V16.25C42.25 11.9402 40.538 7.80698 37.4905 4.75951C34.443 1.71205 30.3098 0 26 0Z" fill="white"/>
</g>
<defs>
<clipPath id="clip0_89_4320">
<rect width="52" height="52" fill="white"/>
</clipPath>
</defs>
</svg>
