<svg width="784" height="769" viewBox="0 0 784 769" fill="none" xmlns="http://www.w3.org/2000/svg">
<path d="M8.5 31L87.5 64L275 247.5L263 261.5L8.5 31Z" fill="#D9D9D9" stroke="black"/>
<path d="M623.002 586.5C623.002 602.5 615.501 615 615.501 615C642.373 613.778 663.941 636.098 671.024 644.428C665.179 636.768 651.219 615.858 654.001 594C654.001 594 636.5 594 623.002 586.5Z" fill="#D9D9D9"/>
<path fill-rule="evenodd" clip-rule="evenodd" d="M475.861 29.7506C506.5 -5.17824 566.953 -21.7497 595.36 55.2498C634.098 160.25 493.36 585.589 374.86 719.75C303.315 800.75 223.86 778.25 223.86 678.25C223.861 578.25 300.86 229.251 475.861 29.7506ZM493.36 80.2504C389.86 205.25 286.36 491.251 276.36 653.251C269.787 759.733 318.524 704.455 345.485 673.876C346.123 673.153 346.748 672.444 347.36 671.751C373.86 641.751 543.004 324.75 552.86 95.2504C552.86 13.7498 493.36 80.2504 493.36 80.2504Z" fill="#0057FF"/>
<path fill-rule="evenodd" clip-rule="evenodd" d="M666.637 469.253C742.86 453.629 784.333 400.959 735.36 342.753C649.962 241.253 254.36 183.251 103.36 219.253C5.92665 242.483 -4.14009 328.753 116.862 390.754C237.864 452.755 535.223 496.189 666.637 469.253ZM653 426C557.363 450 287.5 435 109.36 343.753C18.3967 297.159 84.5 259.251 159.86 254.753C235.221 250.255 161.994 254.625 163.129 254.557C234.901 250.237 460 239 679 342.753C759.322 380.806 710.5 411.57 653 426Z" fill="#0057FF"/>
<path d="M564 369C564 413.577 546.943 454.17 519 484.609C517.475 486.27 515.918 487.9 514.329 489.5C483.352 520.689 440.431 540 393 540C298.559 540 222 463.441 222 369C222 274.559 298.559 198 393 198C487.441 198 564 274.559 564 369Z" fill="#777777"/>
<path d="M604 570.5L519 484.609C517.475 486.27 515.918 487.9 514.329 489.5L604 570.5Z" fill="#777777"/>
<path d="M203.5 419C269.5 526 511 479 625 475.5L614.5 459.5L203.5 419Z" fill="black"/>
<path d="M222 369C222 274.559 298.559 198 393 198C487.441 198 564 274.559 564 369C564 400.353 555.562 429.736 540.833 455L227.323 411.5C223.848 397.912 222 383.672 222 369Z" fill="#D9D9D9"/>
<path fill-rule="evenodd" clip-rule="evenodd" d="M735.36 342.753C784.333 400.959 742.86 453.629 666.637 469.253C535.223 496.189 237.864 452.755 116.862 390.754C-4.14009 328.753 5.92665 242.483 103.36 219.253C145.217 209.273 205.87 206.517 273.5 209.908L236 251.954C207.322 252.157 183.936 253.335 167.391 254.303C167.078 254.322 166.761 254.34 166.441 254.359C164.386 254.482 162.194 254.614 159.86 254.753C84.5 259.251 18.3967 297.159 109.36 343.753C287.5 435 557.363 450 653 426C710.5 411.57 744.322 377.053 664 339C618.622 317.502 587.983 304.694 543.5 291.985L546.738 251.954C632.744 274.908 704.416 305.975 735.36 342.753ZM167.391 254.303C167.072 254.322 166.755 254.341 166.441 254.359C170.165 254.137 176.414 253.764 182.017 253.43C195.459 252.628 205.181 252.048 167.391 254.303Z" fill="#0057FF"/>
<path fill-rule="evenodd" clip-rule="evenodd" d="M595.36 55.2499C566.953 -21.7496 493.624 9.50004 475.861 29.7507L493.36 80.2505C493.36 80.2505 552.86 13.7499 552.86 95.2505C543.004 324.75 373.86 641.751 347.36 671.751C346.755 672.435 346.138 673.135 345.509 673.849L345.485 673.876C318.524 704.455 269.787 759.733 276.36 653.251L223.86 678.25C223.86 778.25 303.315 800.75 374.86 719.75C493.36 585.589 634.098 160.25 595.36 55.2499Z" fill="#0057FF"/>
</svg>
