<svg width="36" height="36" viewBox="0 0 36 36" fill="none" xmlns="http://www.w3.org/2000/svg">
<path d="M29.3188 19.0561C29.1621 18.8988 28.9758 18.774 28.7707 18.6888C28.5655 18.6036 28.3456 18.5598 28.1235 18.5598C27.9014 18.5598 27.6815 18.6036 27.4764 18.6888C27.2713 18.774 27.085 18.8988 26.9282 19.0561L19.6874 26.2969V5.62501C19.6874 5.17745 19.5096 4.74823 19.1932 4.43176C18.8767 4.1153 18.4475 3.93751 17.9999 3.93751C17.5524 3.93751 17.1232 4.1153 16.8067 4.43176C16.4902 4.74823 16.3124 5.17745 16.3124 5.62501V26.2969L9.06885 19.0561C8.75183 18.7391 8.32186 18.561 7.87353 18.561C7.4252 18.561 6.99524 18.7391 6.67822 19.0561C6.3612 19.3731 6.18311 19.8031 6.18311 20.2514C6.18311 20.6997 6.3612 21.1297 6.67822 21.4467L16.8032 31.5717C16.96 31.729 17.1463 31.8539 17.3514 31.939C17.5565 32.0242 17.7764 32.0681 17.9985 32.0681C18.2206 32.0681 18.4405 32.0242 18.6457 31.939C18.8508 31.8539 19.0371 31.729 19.1938 31.5717L29.3188 21.4467C29.4762 21.2899 29.601 21.1037 29.6862 20.8985C29.7713 20.6934 29.8152 20.4735 29.8152 20.2514C29.8152 20.0293 29.7713 19.8094 29.6862 19.6043C29.601 19.3992 29.4762 19.2129 29.3188 19.0561Z" fill="white"/>
</svg>
