<svg width="40" height="40" viewBox="0 0 40 40" fill="none" xmlns="http://www.w3.org/2000/svg">
<path d="M37.4015 10.9531C37.2772 10.5652 37.0405 10.2231 36.7214 9.96992C36.4024 9.71677 36.0153 9.56409 35.6093 9.53123L29.7937 9.03904L27.525 3.74997C27.3648 3.37918 27.0997 3.06337 26.7622 2.8415C26.4247 2.61963 26.0296 2.5014 25.6257 2.5014C25.2219 2.5014 24.8268 2.61963 24.4893 2.8415C24.1518 3.06337 23.8867 3.37918 23.7265 3.74997L21.4578 9.0406L15.6406 9.53123C15.2367 9.56367 14.8514 9.71501 14.5334 9.96616C14.2153 10.2173 13.9788 10.557 13.8536 10.9424C13.7284 11.3279 13.7202 11.7417 13.8299 12.1318C13.9397 12.5219 14.1625 12.8707 14.4703 13.1343L18.8703 16.8844L17.5531 22.4672C17.4605 22.8585 17.4852 23.2684 17.6241 23.6458C17.7631 24.0231 18.0101 24.3512 18.3343 24.589C18.6624 24.83 19.0542 24.9688 19.4608 24.9883C19.8674 25.0077 20.2707 24.9069 20.6203 24.6984L25.6203 21.7297L30.6203 24.6984C30.9699 24.9069 31.3732 25.0077 31.7797 24.9883C32.1863 24.9688 32.5781 24.83 32.9062 24.589C33.2306 24.3513 33.4778 24.0233 33.6167 23.6459C33.7557 23.2685 33.7803 22.8585 33.6875 22.4672L32.3703 16.8844L36.7687 13.1343C37.0783 12.8743 37.3037 12.5281 37.4163 12.1398C37.529 11.7515 37.5238 11.3385 37.4015 10.9531ZM30.5484 15.1719C30.2605 15.4158 30.0459 15.7348 29.9284 16.0934C29.8108 16.4519 29.7951 16.8361 29.8828 17.2031L31.025 22.0469L26.6843 19.4672C26.364 19.2762 25.9979 19.1753 25.625 19.1753C25.252 19.1753 24.886 19.2762 24.5656 19.4672L20.225 22.0312L21.3671 17.1875C21.4561 16.8206 21.4411 16.4363 21.3238 16.0775C21.2065 15.7187 20.9916 15.3997 20.7031 15.1562L16.9125 11.9344L21.9265 11.5094C22.2987 11.4781 22.6553 11.3461 22.9581 11.1276C23.2609 10.909 23.4985 10.6121 23.6453 10.2687L25.625 5.66247L27.6 10.2687C27.7471 10.6119 27.9847 10.9086 28.2875 11.1272C28.5902 11.3457 28.9467 11.4778 29.3187 11.5094L34.3328 11.9344L30.5484 15.1719ZM13.3843 19.6344L4.63434 28.3844C4.39979 28.6189 4.08167 28.7507 3.74996 28.7507C3.41826 28.7507 3.10014 28.6189 2.86559 28.3844C2.63104 28.1498 2.49927 27.8317 2.49927 27.5C2.49927 27.1683 2.63104 26.8502 2.86559 26.6156L11.6156 17.8656C11.8501 17.631 12.1683 17.4993 12.5 17.4993C12.8317 17.4993 13.1498 17.631 13.3843 17.8656C13.6189 18.1002 13.7507 18.4183 13.7507 18.75C13.7507 19.0817 13.6189 19.3998 13.3843 19.6344ZM15.8843 28.3844L7.13434 37.1344C7.0182 37.2505 6.88032 37.3426 6.72858 37.4055C6.57684 37.4683 6.41421 37.5007 6.24996 37.5007C6.08572 37.5007 5.92308 37.4683 5.77134 37.4055C5.6196 37.3426 5.48173 37.2505 5.36559 37.1344C5.24945 37.0182 5.15732 36.8803 5.09447 36.7286C5.03162 36.5769 4.99927 36.4142 4.99927 36.25C4.99927 36.0857 5.03162 35.9231 5.09447 35.7714C5.15732 35.6196 5.24945 35.4817 5.36559 35.3656L14.1156 26.6156C14.3501 26.3811 14.6683 26.2493 15 26.2493C15.3317 26.2493 15.6498 26.3811 15.8843 26.6156C16.1189 26.8502 16.2507 27.1683 16.2507 27.5C16.2507 27.8317 16.1189 28.1498 15.8843 28.3844ZM27.1343 26.6156C27.2506 26.7317 27.3428 26.8696 27.4057 27.0213C27.4686 27.173 27.5009 27.3357 27.5009 27.5C27.5009 27.6642 27.4686 27.8269 27.4057 27.9787C27.3428 28.1304 27.2506 28.2683 27.1343 28.3844L18.3843 37.1344C18.2682 37.2505 18.1303 37.3426 17.9786 37.4055C17.8268 37.4683 17.6642 37.5007 17.5 37.5007C17.3357 37.5007 17.1731 37.4683 17.0213 37.4055C16.8696 37.3426 16.7317 37.2505 16.6156 37.1344C16.4994 37.0182 16.4073 36.8803 16.3445 36.7286C16.2816 36.5769 16.2493 36.4142 16.2493 36.25C16.2493 36.0857 16.2816 35.9231 16.3445 35.7714C16.4073 35.6196 16.4994 35.4817 16.6156 35.3656L25.3656 26.6156C25.4817 26.4994 25.6195 26.4072 25.7713 26.3443C25.923 26.2814 26.0857 26.249 26.25 26.249C26.4142 26.249 26.5769 26.2814 26.7286 26.3443C26.8804 26.4072 27.0182 26.4994 27.1343 26.6156Z" fill="white"/>
</svg>
