<svg width="33" height="32" viewBox="0 0 33 32" fill="none" xmlns="http://www.w3.org/2000/svg">
<path d="M13.214 24.0531C13.1531 24.2953 11.6297 30 3.24998 30C2.91846 30 2.60052 29.8683 2.3661 29.6339C2.13168 29.3995 1.99998 29.0815 1.99998 28.75C1.99998 20.3703 7.70467 18.8469 7.94686 18.7859C8.26864 18.7055 8.60918 18.7563 8.89356 18.9269C9.17794 19.0976 9.38287 19.3743 9.46327 19.6961C9.54366 20.0179 9.49293 20.3584 9.32225 20.6428C9.15156 20.9272 8.87489 21.1321 8.55311 21.2125C8.41248 21.2516 5.04998 22.2344 4.55936 27.4406C9.76561 26.95 10.75 23.5937 10.7906 23.4375C10.8735 23.1161 11.0806 22.8408 11.3665 22.6722C11.6523 22.5036 11.9935 22.4554 12.3148 22.5383C12.6362 22.6212 12.9115 22.8283 13.0801 23.1141C13.2487 23.4 13.2969 23.7411 13.214 24.0625V24.0531ZM27.7453 13.5219L27 14.2672V23.3812C27.0018 23.7108 26.9381 24.0375 26.8126 24.3422C26.6871 24.6469 26.5022 24.9236 26.2687 25.1562L20.9062 30.5156C20.675 30.7485 20.3999 30.9333 20.0969 31.0594C19.7938 31.1854 19.4688 31.2502 19.1406 31.25C18.8697 31.2499 18.6007 31.2061 18.3437 31.1203C17.9026 30.9744 17.5111 30.708 17.2135 30.3513C16.9158 29.9945 16.7239 29.5617 16.6594 29.1016L15.8203 23.0875L8.91248 16.1797L2.90155 15.3406C2.44083 15.276 2.00729 15.0841 1.64968 14.7865C1.29207 14.489 1.0246 14.0975 0.877333 13.6562C0.73007 13.2149 0.708866 12.7413 0.816106 12.2886C0.923345 11.8359 1.15477 11.4221 1.48436 11.0937L6.84373 5.73124C7.07635 5.49778 7.35308 5.3129 7.6578 5.18736C7.96252 5.06183 8.28917 4.99813 8.61873 4.99999H17.7328L18.4781 4.25468C22.6469 0.0874912 27.6703 -0.0921962 29.6359 0.0249913C30.2454 0.0620303 30.8203 0.320852 31.252 0.752621C31.6838 1.18439 31.9426 1.75925 31.9797 2.36874C32.0937 4.32968 31.914 9.35312 27.7469 13.5219H27.7453ZM3.24998 12.8656L9.05467 13.675L15.2328 7.49999H8.61873L3.24998 12.8656ZM11.2687 15L17 20.7312L25.9765 11.7547C27.1863 10.5531 28.1248 9.10652 28.729 7.51212C29.3333 5.91773 29.5892 4.21246 29.4797 2.51093C27.779 2.40547 26.0755 2.6641 24.4828 3.26955C22.8901 3.875 21.4449 4.81333 20.2437 6.02187L11.2687 15ZM24.5 16.7672L18.3234 22.9437L19.1359 28.75L24.5 23.3812V16.7672Z" fill="white"/>
</svg>
